<svg class="rich-terminal" viewBox="0 0 1482 928.4" xmlns="http://www.w3.org/2000/svg">
    <!-- Generated with Rich https://www.textualize.io -->
    <style>

    @font-face {
        font-family: "Fira Code";
        src: local("FiraCode-Regular"),
                url("https://cdnjs.cloudflare.com/ajax/libs/firacode/6.2.0/woff2/FiraCode-Regular.woff2") format("woff2"),
                url("https://cdnjs.cloudflare.com/ajax/libs/firacode/6.2.0/woff/FiraCode-Regular.woff") format("woff");
        font-style: normal;
        font-weight: 400;
    }
    @font-face {
        font-family: "Fira Code";
        src: local("FiraCode-Bold"),
                url("https://cdnjs.cloudflare.com/ajax/libs/firacode/6.2.0/woff2/FiraCode-Bold.woff2") format("woff2"),
                url("https://cdnjs.cloudflare.com/ajax/libs/firacode/6.2.0/woff/FiraCode-Bold.woff") format("woff");
        font-style: bold;
        font-weight: 700;
    }

    .terminal-517919908-matrix {
        font-family: Fira Code, monospace;
        font-size: 20px;
        line-height: 24.4px;
        font-variant-east-asian: full-width;
    }

    .terminal-517919908-title {
        font-size: 18px;
        font-weight: bold;
        font-family: arial;
    }

    .terminal-517919908-r1 { fill: #c5c8c6 }
.terminal-517919908-r2 { fill: #211505;font-weight: bold }
.terminal-517919908-r3 { fill: #211505 }
.terminal-517919908-r4 { fill: #008000 }
.terminal-517919908-r5 { fill: #e0e0e0;font-weight: bold }
.terminal-517919908-r6 { fill: #e0e0e0 }
.terminal-517919908-r7 { fill: #98e024 }
.terminal-517919908-r8 { fill: #ddedf9;font-weight: bold }
.terminal-517919908-r9 { fill: #fd971f }
.terminal-517919908-r10 { fill: #f4005f }
.terminal-517919908-r11 { fill: #c4c5b5 }
.terminal-517919908-r12 { fill: #fea62b }
.terminal-517919908-r13 { fill: #999999 }
.terminal-517919908-r14 { fill: #ffff00 }
.terminal-517919908-r15 { fill: #00ffff;font-weight: bold }
.terminal-517919908-r16 { fill: #999999;font-weight: bold }
.terminal-517919908-r17 { fill: #ffff00;font-weight: bold }
.terminal-517919908-r18 { fill: #ffa62b;font-weight: bold }
.terminal-517919908-r19 { fill: #495259 }
    </style>

    <defs>
    <clipPath id="terminal-517919908-clip-terminal">
      <rect x="0" y="0" width="1463.0" height="877.4" />
    </clipPath>
    <clipPath id="terminal-517919908-line-0">
    <rect x="0" y="1.5" width="1464" height="24.65"/>
            </clipPath>
<clipPath id="terminal-517919908-line-1">
    <rect x="0" y="25.9" width="1464" height="24.65"/>
            </clipPath>
<clipPath id="terminal-517919908-line-2">
    <rect x="0" y="50.3" width="1464" height="24.65"/>
            </clipPath>
<clipPath id="terminal-517919908-line-3">
    <rect x="0" y="74.7" width="1464" height="24.65"/>
            </clipPath>
<clipPath id="terminal-517919908-line-4">
    <rect x="0" y="99.1" width="1464" height="24.65"/>
            </clipPath>
<clipPath id="terminal-517919908-line-5">
    <rect x="0" y="123.5" width="1464" height="24.65"/>
            </clipPath>
<clipPath id="terminal-517919908-line-6">
    <rect x="0" y="147.9" width="1464" height="24.65"/>
            </clipPath>
<clipPath id="terminal-517919908-line-7">
    <rect x="0" y="172.3" width="1464" height="24.65"/>
            </clipPath>
<clipPath id="terminal-517919908-line-8">
    <rect x="0" y="196.7" width="1464" height="24.65"/>
            </clipPath>
<clipPath id="terminal-517919908-line-9">
    <rect x="0" y="221.1" width="1464" height="24.65"/>
            </clipPath>
<clipPath id="terminal-517919908-line-10">
    <rect x="0" y="245.5" width="1464" height="24.65"/>
            </clipPath>
<clipPath id="terminal-517919908-line-11">
    <rect x="0" y="269.9" width="1464" height="24.65"/>
            </clipPath>
<clipPath id="terminal-517919908-line-12">
    <rect x="0" y="294.3" width="1464" height="24.65"/>
            </clipPath>
<clipPath id="terminal-517919908-line-13">
    <rect x="0" y="318.7" width="1464" height="24.65"/>
            </clipPath>
<clipPath id="terminal-517919908-line-14">
    <rect x="0" y="343.1" width="1464" height="24.65"/>
            </clipPath>
<clipPath id="terminal-517919908-line-15">
    <rect x="0" y="367.5" width="1464" height="24.65"/>
            </clipPath>
<clipPath id="terminal-517919908-line-16">
    <rect x="0" y="391.9" width="1464" height="24.65"/>
            </clipPath>
<clipPath id="terminal-517919908-line-17">
    <rect x="0" y="416.3" width="1464" height="24.65"/>
            </clipPath>
<clipPath id="terminal-517919908-line-18">
    <rect x="0" y="440.7" width="1464" height="24.65"/>
            </clipPath>
<clipPath id="terminal-517919908-line-19">
    <rect x="0" y="465.1" width="1464" height="24.65"/>
            </clipPath>
<clipPath id="terminal-517919908-line-20">
    <rect x="0" y="489.5" width="1464" height="24.65"/>
            </clipPath>
<clipPath id="terminal-517919908-line-21">
    <rect x="0" y="513.9" width="1464" height="24.65"/>
            </clipPath>
<clipPath id="terminal-517919908-line-22">
    <rect x="0" y="538.3" width="1464" height="24.65"/>
            </clipPath>
<clipPath id="terminal-517919908-line-23">
    <rect x="0" y="562.7" width="1464" height="24.65"/>
            </clipPath>
<clipPath id="terminal-517919908-line-24">
    <rect x="0" y="587.1" width="1464" height="24.65"/>
            </clipPath>
<clipPath id="terminal-517919908-line-25">
    <rect x="0" y="611.5" width="1464" height="24.65"/>
            </clipPath>
<clipPath id="terminal-517919908-line-26">
    <rect x="0" y="635.9" width="1464" height="24.65"/>
            </clipPath>
<clipPath id="terminal-517919908-line-27">
    <rect x="0" y="660.3" width="1464" height="24.65"/>
            </clipPath>
<clipPath id="terminal-517919908-line-28">
    <rect x="0" y="684.7" width="1464" height="24.65"/>
            </clipPath>
<clipPath id="terminal-517919908-line-29">
    <rect x="0" y="709.1" width="1464" height="24.65"/>
            </clipPath>
<clipPath id="terminal-517919908-line-30">
    <rect x="0" y="733.5" width="1464" height="24.65"/>
            </clipPath>
<clipPath id="terminal-517919908-line-31">
    <rect x="0" y="757.9" width="1464" height="24.65"/>
            </clipPath>
<clipPath id="terminal-517919908-line-32">
    <rect x="0" y="782.3" width="1464" height="24.65"/>
            </clipPath>
<clipPath id="terminal-517919908-line-33">
    <rect x="0" y="806.7" width="1464" height="24.65"/>
            </clipPath>
<clipPath id="terminal-517919908-line-34">
    <rect x="0" y="831.1" width="1464" height="24.65"/>
            </clipPath>
    </defs>

    <rect fill="#292929" stroke="rgba(255,255,255,0.35)" stroke-width="1" x="1" y="1" width="1480" height="926.4" rx="8"/><text class="terminal-517919908-title" fill="#c5c8c6" text-anchor="middle" x="740" y="27">cltop</text>
            <g transform="translate(26,22)">
            <circle cx="0" cy="0" r="7" fill="#ff5f57"/>
            <circle cx="22" cy="0" r="7" fill="#febc2e"/>
            <circle cx="44" cy="0" r="7" fill="#28c840"/>
            </g>
        
    <g transform="translate(9, 41)" clip-path="url(#terminal-517919908-clip-terminal)">
    <rect fill="#fea62b" x="0" y="1.5" width="12.2" height="24.65" shape-rendering="crispEdges"/><rect fill="#fea62b" x="12.2" y="1.5" width="61" height="24.65" shape-rendering="crispEdges"/><rect fill="#fea62b" x="73.2" y="1.5" width="561.2" height="24.65" shape-rendering="crispEdges"/><rect fill="#fea62b" x="634.4" y="1.5" width="48.8" height="24.65" shape-rendering="crispEdges"/><rect fill="#fea62b" x="683.2" y="1.5" width="768.6" height="24.65" shape-rendering="crispEdges"/><rect fill="#fea62b" x="1451.8" y="1.5" width="12.2" height="24.65" shape-rendering="crispEdges"/><rect fill="#2d3740" x="0" y="25.9" width="36.6" height="24.65" shape-rendering="crispEdges"/><rect fill="#2d3740" x="36.6" y="25.9" width="85.4" height="24.65" shape-rendering="crispEdges"/><rect fill="#2d3740" x="122" y="25.9" width="292.8" height="24.65" shape-rendering="crispEdges"/><rect fill="#2d3740" x="414.8" y="25.9" width="146.4" height="24.65" shape-rendering="crispEdges"/><rect fill="#2d3740" x="561.2" y="25.9" width="97.6" height="24.65" shape-rendering="crispEdges"/><rect fill="#2d3740" x="658.8" y="25.9" width="183" height="24.65" shape-rendering="crispEdges"/><rect fill="#2d3740" x="841.8" y="25.9" width="622.2" height="24.65" shape-rendering="crispEdges"/><rect fill="#272727" x="0" y="50.3" width="12.2" height="24.65" shape-rendering="crispEdges"/><rect fill="#272727" x="12.2" y="50.3" width="12.2" height="24.65" shape-rendering="crispEdges"/><rect fill="#272727" x="24.4" y="50.3" width="12.2" height="24.65" shape-rendering="crispEdges"/><rect fill="#272727" x="36.6" y="50.3" width="85.4" height="24.65" shape-rendering="crispEdges"/><rect fill="#272727" x="122" y="50.3" width="292.8" height="24.65" shape-rendering="crispEdges"/><rect fill="#272727" x="414.8" y="50.3" width="146.4" height="24.65" shape-rendering="crispEdges"/><rect fill="#272727" x="561.2" y="50.3" width="97.6" height="24.65" shape-rendering="crispEdges"/><rect fill="#272727" x="658.8" y="50.3" width="183" height="24.65" shape-rendering="crispEdges"/><rect fill="#272727" x="841.8" y="50.3" width="622.2" height="24.65" shape-rendering="crispEdges"/><rect fill="#0178d4" x="0" y="74.7" width="36.6" height="24.65" shape-rendering="crispEdges"/><rect fill="#0178d4" x="36.6" y="74.7" width="85.4" height="24.65" shape-rendering="crispEdges"/><rect fill="#0178d4" x="122" y="74.7" width="292.8" height="24.65" shape-rendering="crispEdges"/><rect fill="#0178d4" x="414.8" y="74.7" width="146.4" height="24.65" shape-rendering="crispEdges"/><rect fill="#0178d4" x="561.2" y="74.7" width="97.6" height="24.65" shape-rendering="crispEdges"/><rect fill="#0178d4" x="658.8" y="74.7" width="183" height="24.65" shape-rendering="crispEdges"/><rect fill="#0178d4" x="841.8" y="74.7" width="622.2" height="24.65" shape-rendering="crispEdges"/><rect fill="#272727" x="0" y="99.1" width="12.2" height="24.65" shape-rendering="crispEdges"/><rect fill="#272727" x="12.2" y="99.1" width="12.2" height="24.65" shape-rendering="crispEdges"/><rect fill="#272727" x="24.4" y="99.1" width="12.2" height="24.65" shape-rendering="crispEdges"/><rect fill="#272727" x="36.6" y="99.1" width="85.4" height="24.65" shape-rendering="crispEdges"/><rect fill="#272727" x="122" y="99.1" width="292.8" height="24.65" shape-rendering="crispEdges"/><rect fill="#272727" x="414.8" y="99.1" width="146.4" height="24.65" shape-rendering="crispEdges"/><rect fill="#272727" x="561.2" y="99.1" width="97.6" height="24.65" shape-rendering="crispEdges"/><rect fill="#272727" x="658.8" y="99.1" width="183" height="24.65" shape-rendering="crispEdges"/><rect fill="#272727" x="841.8" y="99.1" width="622.2" height="24.65" shape-rendering="crispEdges"/><rect fill="#272727" x="0" y="123.5" width="12.2" height="24.65" shape-rendering="crispEdges"/><rect fill="#272727" x="12.2" y="123.5" width="12.2" height="24.65" shape-rendering="crispEdges"/><rect fill="#272727" x="24.4" y="123.5" width="12.2" height="24.65" shape-rendering="crispEdges"/><rect fill="#272727" x="36.6" y="123.5" width="85.4" height="24.65" shape-rendering="crispEdges"/><rect fill="#272727" x="122" y="123.5" width="292.8" height="24.65" shape-rendering="crispEdges"/><rect fill="#272727" x="414.8" y="123.5" width="146.4" height="24.65" shape-rendering="crispEdges"/><rect fill="#272727" x="561.2" y="123.5" width="97.6" height="24.65" shape-rendering="crispEdges"/><rect fill="#272727" x="658.8" y="123.5" width="183" height="24.65" shape-rendering="crispEdges"/><rect fill="#272727" x="841.8" y="123.5" width="622.2" height="24.65" shape-rendering="crispEdges"/><rect fill="#272727" x="0" y="147.9" width="12.2" height="24.65" shape-rendering="crispEdges"/><rect fill="#272727" x="12.2" y="147.9" width="12.2" height="24.65" shape-rendering="crispEdges"/><rect fill="#272727" x="24.4" y="147.9" width="12.2" height="24.65" shape-rendering="crispEdges"/><rect fill="#272727" x="36.6" y="147.9" width="85.4" height="24.65" shape-rendering="crispEdges"/><rect fill="#272727" x="122" y="147.9" width="292.8" height="24.65" shape-rendering="crispEdges"/><rect fill="#272727" x="414.8" y="147.9" width="146.4" height="24.65" shape-rendering="crispEdges"/><rect fill="#272727" x="561.2" y="147.9" width="97.6" height="24.65" shape-rendering="crispEdges"/><rect fill="#272727" x="658.8" y="147.9" width="183" height="24.65" shape-rendering="crispEdges"/><rect fill="#272727" x="841.8" y="147.9" width="622.2" height="24.65" shape-rendering="crispEdges"/><rect fill="#272727" x="0" y="172.3" width="1464" height="24.65" shape-rendering="crispEdges"/><rect fill="#272727" x="0" y="196.7" width="1464" height="24.65" shape-rendering="crispEdges"/><rect fill="#272727" x="0" y="221.1" width="1464" height="24.65" shape-rendering="crispEdges"/><rect fill="#272727" x="0" y="245.5" width="1464" height="24.65" shape-rendering="crispEdges"/><rect fill="#272727" x="0" y="269.9" width="1464" height="24.65" shape-rendering="crispEdges"/><rect fill="#121212" x="0" y="294.3" width="12.2" height="24.65" shape-rendering="crispEdges"/><rect fill="#121212" x="12.2" y="294.3" width="500.2" height="24.65" shape-rendering="crispEdges"/><rect fill="#121212" x="512.4" y="294.3" width="24.4" height="24.65" shape-rendering="crispEdges"/><rect fill="#121212" x="536.8" y="294.3" width="219.6" height="24.65" shape-rendering="crispEdges"/><rect fill="#121212" x="756.4" y="294.3" width="85.4" height="24.65" shape-rendering="crispEdges"/><rect fill="#121212" x="841.8" y="294.3" width="610" height="24.65" shape-rendering="crispEdges"/><rect fill="#121212" x="1451.8" y="294.3" width="12.2" height="24.65" shape-rendering="crispEdges"/><rect fill="#121212" x="0" y="318.7" width="12.2" height="24.65" shape-rendering="crispEdges"/><rect fill="#121212" x="12.2" y="318.7" width="500.2" height="24.65" shape-rendering="crispEdges"/><rect fill="#121212" x="512.4" y="318.7" width="158.6" height="24.65" shape-rendering="crispEdges"/><rect fill="#121212" x="671" y="318.7" width="85.4" height="24.65" shape-rendering="crispEdges"/><rect fill="#121212" x="756.4" y="318.7" width="85.4" height="24.65" shape-rendering="crispEdges"/><rect fill="#121212" x="841.8" y="318.7" width="610" height="24.65" shape-rendering="crispEdges"/><rect fill="#121212" x="1451.8" y="318.7" width="12.2" height="24.65" shape-rendering="crispEdges"/><rect fill="#121212" x="0" y="343.1" width="12.2" height="24.65" shape-rendering="crispEdges"/><rect fill="#121212" x="12.2" y="343.1" width="500.2" height="24.65" shape-rendering="crispEdges"/><rect fill="#121212" x="512.4" y="343.1" width="183" height="24.65" shape-rendering="crispEdges"/><rect fill="#121212" x="695.4" y="343.1" width="61" height="24.65" shape-rendering="crispEdges"/><rect fill="#121212" x="756.4" y="343.1" width="12.2" height="24.65" shape-rendering="crispEdges"/><rect fill="#121212" x="768.6" y="343.1" width="109.8" height="24.65" shape-rendering="crispEdges"/><rect fill="#121212" x="878.4" y="343.1" width="573.4" height="24.65" shape-rendering="crispEdges"/><rect fill="#121212" x="1451.8" y="343.1" width="12.2" height="24.65" shape-rendering="crispEdges"/><rect fill="#121212" x="0" y="367.5" width="12.2" height="24.65" shape-rendering="crispEdges"/><rect fill="#121212" x="12.2" y="367.5" width="414.8" height="24.65" shape-rendering="crispEdges"/><rect fill="#121212" x="427" y="367.5" width="1024.8" height="24.65" shape-rendering="crispEdges"/><rect fill="#121212" x="1451.8" y="367.5" width="12.2" height="24.65" shape-rendering="crispEdges"/><rect fill="#121212" x="0" y="391.9" width="12.2" height="24.65" shape-rendering="crispEdges"/><rect fill="#121212" x="12.2" y="391.9" width="0" height="24.65" shape-rendering="crispEdges"/><rect fill="#121212" x="12.2" y="391.9" width="1439.6" height="24.65" shape-rendering="crispEdges"/><rect fill="#121212" x="1451.8" y="391.9" width="12.2" height="24.65" shape-rendering="crispEdges"/><rect fill="#121212" x="0" y="416.3" width="12.2" height="24.65" shape-rendering="crispEdges"/><rect fill="#121212" x="12.2" y="416.3" width="61" height="24.65" shape-rendering="crispEdges"/><rect fill="#121212" x="73.2" y="416.3" width="463.6" height="24.65" shape-rendering="crispEdges"/><rect fill="#121212" x="536.8" y="416.3" width="915" height="24.65" shape-rendering="crispEdges"/><rect fill="#121212" x="1451.8" y="416.3" width="12.2" height="24.65" shape-rendering="crispEdges"/><rect fill="#121212" x="0" y="440.7" width="12.2" height="24.65" shape-rendering="crispEdges"/><rect fill="#121212" x="12.2" y="440.7" width="61" height="24.65" shape-rendering="crispEdges"/><rect fill="#121212" x="73.2" y="440.7" width="170.8" height="24.65" shape-rendering="crispEdges"/><rect fill="#121212" x="244" y="440.7" width="1207.8" height="24.65" shape-rendering="crispEdges"/><rect fill="#121212" x="1451.8" y="440.7" width="12.2" height="24.65" shape-rendering="crispEdges"/><rect fill="#121212" x="0" y="465.1" width="12.2" height="24.65" shape-rendering="crispEdges"/><rect fill="#121212" x="12.2" y="465.1" width="0" height="24.65" shape-rendering="crispEdges"/><rect fill="#121212" x="12.2" y="465.1" width="1439.6" height="24.65" shape-rendering="crispEdges"/><rect fill="#121212" x="1451.8" y="465.1" width="12.2" height="24.65" shape-rendering="crispEdges"/><rect fill="#121212" x="0" y="489.5" width="12.2" height="24.65" shape-rendering="crispEdges"/><rect fill="#121212" x="12.2" y="489.5" width="158.6" height="24.65" shape-rendering="crispEdges"/><rect fill="#121212" x="170.8" y="489.5" width="1281" height="24.65" shape-rendering="crispEdges"/><rect fill="#121212" x="1451.8" y="489.5" width="12.2" height="24.65" shape-rendering="crispEdges"/><rect fill="#121212" x="0" y="513.9" width="12.2" height="24.65" shape-rendering="crispEdges"/><rect fill="#121212" x="12.2" y="513.9" width="24.4" height="24.65" shape-rendering="crispEdges"/><rect fill="#121212" x="36.6" y="513.9" width="97.6" height="24.65" shape-rendering="crispEdges"/><rect fill="#121212" x="134.2" y="513.9" width="24.4" height="24.65" shape-rendering="crispEdges"/><rect fill="#121212" x="158.6" y="513.9" width="97.6" height="24.65" shape-rendering="crispEdges"/><rect fill="#121212" x="256.2" y="513.9" width="256.2" height="24.65" shape-rendering="crispEdges"/><rect fill="#121212" x="512.4" y="513.9" width="146.4" height="24.65" shape-rendering="crispEdges"/><rect fill="#121212" x="658.8" y="513.9" width="793" height="24.65" shape-rendering="crispEdges"/><rect fill="#121212" x="1451.8" y="513.9" width="12.2" height="24.65" shape-rendering="crispEdges"/><rect fill="#121212" x="0" y="538.3" width="12.2" height="24.65" shape-rendering="crispEdges"/><rect fill="#121212" x="12.2" y="538.3" width="24.4" height="24.65" shape-rendering="crispEdges"/><rect fill="#121212" x="36.6" y="538.3" width="97.6" height="24.65" shape-rendering="crispEdges"/><rect fill="#121212" x="134.2" y="538.3" width="24.4" height="24.65" shape-rendering="crispEdges"/><rect fill="#121212" x="158.6" y="538.3" width="97.6" height="24.65" shape-rendering="crispEdges"/><rect fill="#121212" x="256.2" y="538.3" width="170.8" height="24.65" shape-rendering="crispEdges"/><rect fill="#121212" x="427" y="538.3" width="146.4" height="24.65" shape-rendering="crispEdges"/><rect fill="#121212" x="573.4" y="538.3" width="878.4" height="24.65" shape-rendering="crispEdges"/><rect fill="#121212" x="1451.8" y="538.3" width="12.2" height="24.65" shape-rendering="crispEdges"/><rect fill="#121212" x="0" y="562.7" width="12.2" height="24.65" shape-rendering="crispEdges"/><rect fill="#121212" x="12.2" y="562.7" width="1439.6" height="24.65" shape-rendering="crispEdges"/><rect fill="#121212" x="1451.8" y="562.7" width="12.2" height="24.65" shape-rendering="crispEdges"/><rect fill="#121212" x="0" y="587.1" width="12.2" height="24.65" shape-rendering="crispEdges"/><rect fill="#121212" x="12.2" y="587.1" width="1439.6" height="24.65" shape-rendering="crispEdges"/><rect fill="#121212" x="1451.8" y="587.1" width="12.2" height="24.65" shape-rendering="crispEdges"/><rect fill="#121212" x="0" y="611.5" width="12.2" height="24.65" shape-rendering="crispEdges"/><rect fill="#121212" x="12.2" y="611.5" width="1439.6" height="24.65" shape-rendering="crispEdges"/><rect fill="#121212" x="1451.8" y="611.5" width="12.2" height="24.65" shape-rendering="crispEdges"/><rect fill="#121212" x="0" y="635.9" width="12.2" height="24.65" shape-rendering="crispEdges"/><rect fill="#121212" x="12.2" y="635.9" width="1439.6" height="24.65" shape-rendering="crispEdges"/><rect fill="#121212" x="1451.8" y="635.9" width="12.2" height="24.65" shape-rendering="crispEdges"/><rect fill="#121212" x="0" y="660.3" width="12.2" height="24.65" shape-rendering="crispEdges"/><rect fill="#121212" x="12.2" y="660.3" width="1439.6" height="24.65" shape-rendering="crispEdges"/><rect fill="#121212" x="1451.8" y="660.3" width="12.2" height="24.65" shape-rendering="crispEdges"/><rect fill="#121212" x="0" y="684.7" width="12.2" height="24.65" shape-rendering="crispEdges"/><rect fill="#121212" x="12.2" y="684.7" width="1439.6" height="24.65" shape-rendering="crispEdges"/><rect fill="#121212" x="1451.8" y="684.7" width="12.2" height="24.65" shape-rendering="crispEdges"/><rect fill="#121212" x="0" y="709.1" width="12.2" height="24.65" shape-rendering="crispEdges"/><rect fill="#121212" x="12.2" y="709.1" width="1439.6" height="24.65" shape-rendering="crispEdges"/><rect fill="#121212" x="1451.8" y="709.1" width="12.2" height="24.65" shape-rendering="crispEdges"/><rect fill="#121212" x="0" y="733.5" width="12.2" height="24.65" shape-rendering="crispEdges"/><rect fill="#121212" x="12.2" y="733.5" width="1439.6" height="24.65" shape-rendering="crispEdges"/><rect fill="#121212" x="1451.8" y="733.5" width="12.2" height="24.65" shape-rendering="crispEdges"/><rect fill="#121212" x="0" y="757.9" width="12.2" height="24.65" shape-rendering="crispEdges"/><rect fill="#121212" x="12.2" y="757.9" width="1439.6" height="24.65" shape-rendering="crispEdges"/><rect fill="#121212" x="1451.8" y="757.9" width="12.2" height="24.65" shape-rendering="crispEdges"/><rect fill="#121212" x="0" y="782.3" width="12.2" height="24.65" shape-rendering="crispEdges"/><rect fill="#121212" x="12.2" y="782.3" width="1439.6" height="24.65" shape-rendering="crispEdges"/><rect fill="#121212" x="1451.8" y="782.3" width="12.2" height="24.65" shape-rendering="crispEdges"/><rect fill="#121212" x="0" y="806.7" width="12.2" height="24.65" shape-rendering="crispEdges"/><rect fill="#121212" x="12.2" y="806.7" width="1439.6" height="24.65" shape-rendering="crispEdges"/><rect fill="#121212" x="1451.8" y="806.7" width="12.2" height="24.65" shape-rendering="crispEdges"/><rect fill="#121212" x="0" y="831.1" width="12.2" height="24.65" shape-rendering="crispEdges"/><rect fill="#121212" x="12.2" y="831.1" width="1439.6" height="24.65" shape-rendering="crispEdges"/><rect fill="#121212" x="1451.8" y="831.1" width="12.2" height="24.65" shape-rendering="crispEdges"/><rect fill="#242f38" x="0" y="855.5" width="36.6" height="24.65" shape-rendering="crispEdges"/><rect fill="#242f38" x="36.6" y="855.5" width="61" height="24.65" shape-rendering="crispEdges"/><rect fill="#242f38" x="97.6" y="855.5" width="36.6" height="24.65" shape-rendering="crispEdges"/><rect fill="#242f38" x="134.2" y="855.5" width="61" height="24.65" shape-rendering="crispEdges"/><rect fill="#242f38" x="195.2" y="855.5" width="36.6" height="24.65" shape-rendering="crispEdges"/><rect fill="#242f38" x="231.8" y="855.5" width="61" height="24.65" shape-rendering="crispEdges"/><rect fill="#242f38" x="292.8" y="855.5" width="36.6" height="24.65" shape-rendering="crispEdges"/><rect fill="#242f38" x="329.4" y="855.5" width="61" height="24.65" shape-rendering="crispEdges"/><rect fill="#242f38" x="390.4" y="855.5" width="36.6" height="24.65" shape-rendering="crispEdges"/><rect fill="#242f38" x="427" y="855.5" width="97.6" height="24.65" shape-rendering="crispEdges"/><rect fill="#242f38" x="524.6" y="855.5" width="793" height="24.65" shape-rendering="crispEdges"/><rect fill="#242f38" x="1317.6" y="855.5" width="12.2" height="24.65" shape-rendering="crispEdges"/><rect fill="#242f38" x="1329.8" y="855.5" width="24.4" height="24.65" shape-rendering="crispEdges"/><rect fill="#242f38" x="1354.2" y="855.5" width="97.6" height="24.65" shape-rendering="crispEdges"/><rect fill="#242f38" x="1451.8" y="855.5" width="12.2" height="24.65" shape-rendering="crispEdges"/>
    <g class="terminal-517919908-matrix">
    <text class="terminal-517919908-r2" x="12.2" y="20" textLength="61" clip-path="url(#terminal-517919908-line-0)">cltop</text><text class="terminal-517919908-r3" x="73.2" y="20" textLength="561.2" clip-path="url(#terminal-517919908-line-0)">&#160;—&#160;5&#160;sessions&#160;·&#160;Max:&#160;3&#160;active&#160;·&#160;~216&#160;req/hr&#160;·&#160;</text><text class="terminal-517919908-r4" x="634.4" y="20" textLength="48.8" clip-path="url(#terminal-517919908-line-0)">hook</text><text class="terminal-517919908-r1" x="1464" y="20" textLength="12.2" clip-path="url(#terminal-517919908-line-0)">
</text><text class="terminal-517919908-r5" x="36.6" y="44.4" textLength="85.4" clip-path="url(#terminal-517919908-line-1)">&#160;PID&#160;&#160;&#160;</text><text class="terminal-517919908-r5" x="122" y="44.4" textLength="292.8" clip-path="url(#terminal-517919908-line-1)">&#160;Project&#160;&#160;&#160;&#160;&#160;&#160;&#160;&#160;&#160;&#160;&#160;&#160;&#160;&#160;&#160;&#160;</text><text class="terminal-517919908-r5" x="414.8" y="44.4" textLength="146.4" clip-path="url(#terminal-517919908-line-1)">&#160;Status&#160;&#160;&#160;&#160;&#160;</text><text class="terminal-517919908-r5" x="561.2" y="44.4" textLength="97.6" clip-path="url(#terminal-517919908-line-1)">&#160;Tokens&#160;</text><text class="terminal-517919908-r5" x="658.8" y="44.4" textLength="183" clip-path="url(#terminal-517919908-line-1)">&#160;Last&#160;Activity&#160;</text><text class="terminal-517919908-r1" x="1464" y="44.4" textLength="12.2" clip-path="url(#terminal-517919908-line-1)">
</text><text class="terminal-517919908-r7" x="12.2" y="68.8" textLength="12.2" clip-path="url(#terminal-517919908-line-2)">●</text><text class="terminal-517919908-r6" x="36.6" y="68.8" textLength="85.4" clip-path="url(#terminal-517919908-line-2)">&#160;78421&#160;</text><text class="terminal-517919908-r6" x="122" y="68.8" textLength="292.8" clip-path="url(#terminal-517919908-line-2)">&#160;projects/cltop&#160;&#160;&#160;&#160;&#160;&#160;&#160;&#160;&#160;</text><text class="terminal-517919908-r6" x="414.8" y="68.8" textLength="146.4" clip-path="url(#terminal-517919908-line-2)">&#160;active&#160;&#160;&#160;&#160;&#160;</text><text class="terminal-517919908-r6" x="561.2" y="68.8" textLength="97.6" clip-path="url(#terminal-517919908-line-2)">&#160;142.8K&#160;</text><text class="terminal-517919908-r6" x="658.8" y="68.8" textLength="183" clip-path="url(#terminal-517919908-line-2)">&#160;2s&#160;&#160;&#160;&#160;&#160;&#160;&#160;&#160;&#160;&#160;&#160;&#160;</text><text class="terminal-517919908-r1" x="1464" y="68.8" textLength="12.2" clip-path="url(#terminal-517919908-line-2)">
</text><text class="terminal-517919908-r8" x="0" y="93.2" textLength="36.6" clip-path="url(#terminal-517919908-line-3)">&#160;●&#160;</text><text class="terminal-517919908-r8" x="36.6" y="93.2" textLength="85.4" clip-path="url(#terminal-517919908-line-3)">&#160;79001&#160;</text><text class="terminal-517919908-r8" x="122" y="93.2" textLength="292.8" clip-path="url(#terminal-517919908-line-3)">&#160;projects/cltop&#160;&#160;&#160;&#160;&#160;&#160;&#160;&#160;&#160;</text><text class="terminal-517919908-r8" x="414.8" y="93.2" textLength="146.4" clip-path="url(#terminal-517919908-line-3)">&#160;background&#160;</text><text class="terminal-517919908-r8" x="561.2" y="93.2" textLength="97.6" clip-path="url(#terminal-517919908-line-3)">&#160;24.6K&#160;&#160;</text><text class="terminal-517919908-r8" x="658.8" y="93.2" textLength="183" clip-path="url(#terminal-517919908-line-3)">&#160;5s&#160;&#160;&#160;&#160;&#160;&#160;&#160;&#160;&#160;&#160;&#160;&#160;</text><text class="terminal-517919908-r1" x="1464" y="93.2" textLength="12.2" clip-path="url(#terminal-517919908-line-3)">
</text><text class="terminal-517919908-r9" x="12.2" y="117.6" textLength="12.2" clip-path="url(#terminal-517919908-line-4)">●</text><text class="terminal-517919908-r6" x="36.6" y="117.6" textLength="85.4" clip-path="url(#terminal-517919908-line-4)">&#160;78590&#160;</text><text class="terminal-517919908-r6" x="122" y="117.6" textLength="292.8" clip-path="url(#terminal-517919908-line-4)">&#160;promptspeak/mcp-server&#160;</text><text class="terminal-517919908-r6" x="414.8" y="117.6" textLength="146.4" clip-path="url(#terminal-517919908-line-4)">&#160;thinking&#160;&#160;&#160;</text><text class="terminal-517919908-r6" x="561.2" y="117.6" textLength="97.6" clip-path="url(#terminal-517919908-line-4)">&#160;89.4K&#160;&#160;</text><text class="terminal-517919908-r6" x="658.8" y="117.6" textLength="183" clip-path="url(#terminal-517919908-line-4)">&#160;18s&#160;&#160;&#160;&#160;&#160;&#160;&#160;&#160;&#160;&#160;&#160;</text><text class="terminal-517919908-r1" x="1464" y="117.6" textLength="12.2" clip-path="url(#terminal-517919908-line-4)">
</text><text class="terminal-517919908-r10" x="12.2" y="142" textLength="12.2" clip-path="url(#terminal-517919908-line-5)">●</text><text class="terminal-517919908-r6" x="36.6" y="142" textLength="85.4" clip-path="url(#terminal-517919908-line-5)">&#160;76200&#160;</text><text class="terminal-517919908-r6" x="122" y="142" textLength="292.8" clip-path="url(#terminal-517919908-line-5)">&#160;claude_app&#160;&#160;&#160;&#160;&#160;&#160;&#160;&#160;&#160;&#160;&#160;&#160;&#160;</text><text class="terminal-517919908-r6" x="414.8" y="142" textLength="146.4" clip-path="url(#terminal-517919908-line-5)">&#160;blocked&#160;&#160;&#160;&#160;</text><text class="terminal-517919908-r6" x="561.2" y="142" textLength="97.6" clip-path="url(#terminal-517919908-line-5)">&#160;56.0K&#160;&#160;</text><text class="terminal-517919908-r6" x="658.8" y="142" textLength="183" clip-path="url(#terminal-517919908-line-5)">&#160;4m&#160;&#160;&#160;&#160;&#160;&#160;&#160;&#160;&#160;&#160;&#160;&#160;</text><text class="terminal-517919908-r1" x="1464" y="142" textLength="12.2" clip-path="url(#terminal-517919908-line-5)">
</text><text class="terminal-517919908-r11" x="12.2" y="166.4" textLength="12.2" clip-path="url(#terminal-517919908-line-6)">●</text><text class="terminal-517919908-r6" x="36.6" y="166.4" textLength="85.4" clip-path="url(#terminal-517919908-line-6)">&#160;77103&#160;</text><text class="terminal-517919908-r6" x="122" y="166.4" textLength="292.8" clip-path="url(#terminal-517919908-line-6)">&#160;projects/daily-heat&#160;&#160;&#160;&#160;</text><text class="terminal-517919908-r6" x="414.8" y="166.4" textLength="146.4" clip-path="url(#terminal-517919908-line-6)">&#160;idle&#160;&#160;&#160;&#160;&#160;&#160;&#160;</text><text class="terminal-517919908-r6" x="561.2" y="166.4" textLength="97.6" clip-path="url(#terminal-517919908-line-6)">&#160;178.2K&#160;</text><text class="terminal-517919908-r6" x="658.8" y="166.4" textLength="183" clip-path="url(#terminal-517919908-line-6)">&#160;38m&#160;&#160;&#160;&#160;&#160;&#160;&#160;&#160;&#160;&#160;&#160;</text><text class="terminal-517919908-r1" x="1464" y="166.4" textLength="12.2" clip-path="url(#terminal-517919908-line-6)">
</text><text class="terminal-517919908-r1" x="1464" y="190.8" textLength="12.2" clip-path="url(#terminal-517919908-line-7)">
</text><text class="terminal-517919908-r1" x="1464" y="215.2" textLength="12.2" clip-path="url(#terminal-517919908-line-8)">
</text><text class="terminal-517919908-r1" x="1464" y="239.6" textLength="12.2" clip-path="url(#terminal-517919908-line-9)">
</text><text class="terminal-517919908-r1" x="1464" y="264" textLength="12.2" clip-path="url(#terminal-517919908-line-10)">
</text><text class="terminal-517919908-r12" x="0" y="288.4" textLength="1464" clip-path="url(#terminal-517919908-line-11)">────────────────────────────────────────────────────────────────────────────────────────────────────────────────────────</text><text class="terminal-517919908-r1" x="1464" y="288.4" textLength="12.2" clip-path="url(#terminal-517919908-line-11)">
</text><text class="terminal-517919908-r6" x="12.2" y="312.8" textLength="500.2" clip-path="url(#terminal-517919908-line-12)">Context:&#160;24,600&#160;/&#160;200,000&#160;&#160;&#160;&#160;&#160;&#160;&#160;&#160;&#160;&#160;&#160;&#160;&#160;&#160;&#160;&#160;</text><text class="terminal-517919908-r4" x="512.4" y="312.8" textLength="24.4" clip-path="url(#terminal-517919908-line-12)">██</text><text class="terminal-517919908-r13" x="536.8" y="312.8" textLength="219.6" clip-path="url(#terminal-517919908-line-12)">░░░░░░░░░░░░░░░░░░</text><text class="terminal-517919908-r6" x="756.4" y="312.8" textLength="85.4" clip-path="url(#terminal-517919908-line-12)">&#160;&#160;12.3%</text><text class="terminal-517919908-r1" x="1464" y="312.8" textLength="12.2" clip-path="url(#terminal-517919908-line-12)">
</text><text class="terminal-517919908-r6" x="12.2" y="337.2" textLength="500.2" clip-path="url(#terminal-517919908-line-13)">Progress:&#160;2&#160;/&#160;3&#160;&#160;&#160;&#160;&#160;&#160;&#160;&#160;&#160;&#160;&#160;&#160;&#160;&#160;&#160;&#160;&#160;&#160;&#160;&#160;&#160;&#160;&#160;&#160;&#160;&#160;</text><text class="terminal-517919908-r14" x="512.4" y="337.2" textLength="158.6" clip-path="url(#terminal-517919908-line-13)">█████████████</text><text class="terminal-517919908-r13" x="671" y="337.2" textLength="85.4" clip-path="url(#terminal-517919908-line-13)">░░░░░░░</text><text class="terminal-517919908-r6" x="756.4" y="337.2" textLength="85.4" clip-path="url(#terminal-517919908-line-13)">&#160;&#160;66.7%</text><text class="terminal-517919908-r1" x="1464" y="337.2" textLength="12.2" clip-path="url(#terminal-517919908-line-13)">
</text><text class="terminal-517919908-r6" x="12.2" y="361.6" textLength="500.2" clip-path="url(#terminal-517919908-line-14)">Rate:&#160;94.7&#160;req/hr&#160;&#160;&#160;&#160;&#160;&#160;&#160;&#160;&#160;&#160;&#160;&#160;&#160;&#160;&#160;&#160;&#160;&#160;&#160;&#160;&#160;&#160;&#160;&#160;</text><text class="terminal-517919908-r14" x="512.4" y="361.6" textLength="183" clip-path="url(#terminal-517919908-line-14)">███████████████</text><text class="terminal-517919908-r13" x="695.4" y="361.6" textLength="61" clip-path="url(#terminal-517919908-line-14)">░░░░░</text><text class="terminal-517919908-r14" x="768.6" y="361.6" textLength="109.8" clip-path="url(#terminal-517919908-line-14)">Very&#160;High</text><text class="terminal-517919908-r1" x="1464" y="361.6" textLength="12.2" clip-path="url(#terminal-517919908-line-14)">
</text><text class="terminal-517919908-r5" x="12.2" y="386" textLength="414.8" clip-path="url(#terminal-517919908-line-15)">▶&#160;Session:&#160;79001&#160;·&#160;projects/cltop&#160;</text><text class="terminal-517919908-r1" x="1464" y="386" textLength="12.2" clip-path="url(#terminal-517919908-line-15)">
</text><text class="terminal-517919908-r1" x="1464" y="410.4" textLength="12.2" clip-path="url(#terminal-517919908-line-16)">
</text><text class="terminal-517919908-r15" x="12.2" y="434.8" textLength="61" clip-path="url(#terminal-517919908-line-17)">Task:</text><text class="terminal-517919908-r5" x="73.2" y="434.8" textLength="463.6" clip-path="url(#terminal-517919908-line-17)">&#160;Write&#160;security&#160;tests&#160;for&#160;hooks&#160;module</text><text class="terminal-517919908-r1" x="1464" y="434.8" textLength="12.2" clip-path="url(#terminal-517919908-line-17)">
</text><text class="terminal-517919908-r15" x="12.2" y="459.2" textLength="61" clip-path="url(#terminal-517919908-line-18)">File:</text><text class="terminal-517919908-r5" x="73.2" y="459.2" textLength="170.8" clip-path="url(#terminal-517919908-line-18)">&#160;test_hooks.py</text><text class="terminal-517919908-r1" x="1464" y="459.2" textLength="12.2" clip-path="url(#terminal-517919908-line-18)">
</text><text class="terminal-517919908-r1" x="1464" y="483.6" textLength="12.2" clip-path="url(#terminal-517919908-line-19)">
</text><text class="terminal-517919908-r5" x="12.2" y="508" textLength="158.6" clip-path="url(#terminal-517919908-line-20)">Recent&#160;Tools:</text><text class="terminal-517919908-r1" x="1464" y="508" textLength="12.2" clip-path="url(#terminal-517919908-line-20)">
</text><text class="terminal-517919908-r16" x="36.6" y="532.4" textLength="97.6" clip-path="url(#terminal-517919908-line-21)">20:11:57</text><text class="terminal-517919908-r17" x="158.6" y="532.4" textLength="97.6" clip-path="url(#terminal-517919908-line-21)">Write&#160;&#160;&#160;</text><text class="terminal-517919908-r5" x="256.2" y="532.4" textLength="256.2" clip-path="url(#terminal-517919908-line-21)">&#160;Write&#160;test_hooks.py&#160;</text><text class="terminal-517919908-r16" x="512.4" y="532.4" textLength="146.4" clip-path="url(#terminal-517919908-line-21)">(running...)</text><text class="terminal-517919908-r1" x="1464" y="532.4" textLength="12.2" clip-path="url(#terminal-517919908-line-21)">
</text><text class="terminal-517919908-r16" x="36.6" y="556.8" textLength="97.6" clip-path="url(#terminal-517919908-line-22)">20:12:22</text><text class="terminal-517919908-r17" x="158.6" y="556.8" textLength="97.6" clip-path="url(#terminal-517919908-line-22)">Bash&#160;&#160;&#160;&#160;</text><text class="terminal-517919908-r5" x="256.2" y="556.8" textLength="170.8" clip-path="url(#terminal-517919908-line-22)">&#160;Bash:&#160;pytest&#160;</text><text class="terminal-517919908-r16" x="427" y="556.8" textLength="146.4" clip-path="url(#terminal-517919908-line-22)">(running...)</text><text class="terminal-517919908-r1" x="1464" y="556.8" textLength="12.2" clip-path="url(#terminal-517919908-line-22)">
</text><text class="terminal-517919908-r1" x="1464" y="581.2" textLength="12.2" clip-path="url(#terminal-517919908-line-23)">
</text><text class="terminal-517919908-r1" x="1464" y="605.6" textLength="12.2" clip-path="url(#terminal-517919908-line-24)">
</text><text class="terminal-517919908-r1" x="1464" y="630" textLength="12.2" clip-path="url(#terminal-517919908-line-25)">
</text><text class="terminal-517919908-r1" x="1464" y="654.4" textLength="12.2" clip-path="url(#terminal-517919908-line-26)">
</text><text class="terminal-517919908-r1" x="1464" y="678.8" textLength="12.2" clip-path="url(#terminal-517919908-line-27)">
</text><text class="terminal-517919908-r1" x="1464" y="703.2" textLength="12.2" clip-path="url(#terminal-517919908-line-28)">
</text><text class="terminal-517919908-r1" x="1464" y="727.6" textLength="12.2" clip-path="url(#terminal-517919908-line-29)">
</text><text class="terminal-517919908-r1" x="1464" y="752" textLength="12.2" clip-path="url(#terminal-517919908-line-30)">
</text><text class="terminal-517919908-r1" x="1464" y="776.4" textLength="12.2" clip-path="url(#terminal-517919908-line-31)">
</text><text class="terminal-517919908-r1" x="1464" y="800.8" textLength="12.2" clip-path="url(#terminal-517919908-line-32)">
</text><text class="terminal-517919908-r1" x="1464" y="825.2" textLength="12.2" clip-path="url(#terminal-517919908-line-33)">
</text><text class="terminal-517919908-r1" x="1464" y="849.6" textLength="12.2" clip-path="url(#terminal-517919908-line-34)">
</text><text class="terminal-517919908-r18" x="0" y="874" textLength="36.6" clip-path="url(#terminal-517919908-line-35)">&#160;q&#160;</text><text class="terminal-517919908-r6" x="36.6" y="874" textLength="61" clip-path="url(#terminal-517919908-line-35)">Quit&#160;</text><text class="terminal-517919908-r18" x="97.6" y="874" textLength="36.6" clip-path="url(#terminal-517919908-line-35)">&#160;k&#160;</text><text class="terminal-517919908-r6" x="134.2" y="874" textLength="61" clip-path="url(#terminal-517919908-line-35)">Kill&#160;</text><text class="terminal-517919908-r18" x="195.2" y="874" textLength="36.6" clip-path="url(#terminal-517919908-line-35)">&#160;h&#160;</text><text class="terminal-517919908-r6" x="231.8" y="874" textLength="61" clip-path="url(#terminal-517919908-line-35)">Hook&#160;</text><text class="terminal-517919908-r18" x="292.8" y="874" textLength="36.6" clip-path="url(#terminal-517919908-line-35)">&#160;s&#160;</text><text class="terminal-517919908-r6" x="329.4" y="874" textLength="61" clip-path="url(#terminal-517919908-line-35)">Sort&#160;</text><text class="terminal-517919908-r18" x="390.4" y="874" textLength="36.6" clip-path="url(#terminal-517919908-line-35)">&#160;r&#160;</text><text class="terminal-517919908-r6" x="427" y="874" textLength="97.6" clip-path="url(#terminal-517919908-line-35)">Refresh&#160;</text><text class="terminal-517919908-r19" x="1317.6" y="874" textLength="12.2" clip-path="url(#terminal-517919908-line-35)">▏</text><text class="terminal-517919908-r18" x="1329.8" y="874" textLength="24.4" clip-path="url(#terminal-517919908-line-35)">^p</text><text class="terminal-517919908-r6" x="1354.2" y="874" textLength="97.6" clip-path="url(#terminal-517919908-line-35)">&#160;palette</text>
    </g>
    </g>
</svg>
